<mxfile host="app.diagrams.net" agent="Mozilla/5.0 (Macintosh; Intel Mac OS X 10_15_7) AppleWebKit/537.36 (KHTML, like Gecko) Chrome/135.0.0.0 Safari/537.36" version="27.0.1">
  <diagram name="Page-1" id="oWnz_EQfe5_99yX0bL4z">
    <mxGraphModel dx="2194" dy="1268" grid="1" gridSize="10" guides="1" tooltips="1" connect="1" arrows="1" fold="1" page="1" pageScale="1" pageWidth="3300" pageHeight="4681" math="0" shadow="0">
      <root>
        <mxCell id="0" />
        <mxCell id="1" parent="0" />
        <mxCell id="Rnt6nUYaGQKZYK7r9Nj7-2" value="AWS Gateway" style="outlineConnect=0;dashed=0;verticalLabelPosition=bottom;verticalAlign=top;align=center;html=1;shape=mxgraph.aws3.api_gateway;fillColor=#D9A741;gradientColor=none;" vertex="1" parent="1">
          <mxGeometry x="350" y="338.5" width="76.5" height="93" as="geometry" />
        </mxCell>
        <mxCell id="Rnt6nUYaGQKZYK7r9Nj7-9" style="edgeStyle=orthogonalEdgeStyle;rounded=0;orthogonalLoop=1;jettySize=auto;html=1;entryX=0;entryY=0.5;entryDx=0;entryDy=0;" edge="1" parent="1" source="Rnt6nUYaGQKZYK7r9Nj7-4" target="Rnt6nUYaGQKZYK7r9Nj7-8">
          <mxGeometry relative="1" as="geometry" />
        </mxCell>
        <mxCell id="Rnt6nUYaGQKZYK7r9Nj7-4" value="AWS Application&amp;nbsp;&lt;div&gt;Load Balancer&lt;/div&gt;" style="outlineConnect=0;dashed=0;verticalLabelPosition=bottom;verticalAlign=top;align=center;html=1;shape=mxgraph.aws3.application_load_balancer;fillColor=#F58534;gradientColor=none;" vertex="1" parent="1">
          <mxGeometry x="570" y="349" width="69" height="72" as="geometry" />
        </mxCell>
        <mxCell id="Rnt6nUYaGQKZYK7r9Nj7-6" style="edgeStyle=orthogonalEdgeStyle;rounded=0;orthogonalLoop=1;jettySize=auto;html=1;entryX=0;entryY=0.5;entryDx=0;entryDy=0;entryPerimeter=0;" edge="1" parent="1" source="Rnt6nUYaGQKZYK7r9Nj7-2" target="Rnt6nUYaGQKZYK7r9Nj7-4">
          <mxGeometry relative="1" as="geometry" />
        </mxCell>
        <mxCell id="Rnt6nUYaGQKZYK7r9Nj7-7" value="/pay" style="text;html=1;align=center;verticalAlign=middle;whiteSpace=wrap;rounded=0;" vertex="1" parent="1">
          <mxGeometry x="470" y="349" width="60" height="30" as="geometry" />
        </mxCell>
        <mxCell id="Rnt6nUYaGQKZYK7r9Nj7-8" value="Horizontal Container" style="swimlane;horizontal=0;whiteSpace=wrap;html=1;strokeColor=light-dark(#000000,#00CC00);" vertex="1" parent="1">
          <mxGeometry x="720" y="187.5" width="540" height="400" as="geometry" />
        </mxCell>
        <mxCell id="Rnt6nUYaGQKZYK7r9Nj7-10" value="ECS" style="outlineConnect=0;dashed=0;verticalLabelPosition=bottom;verticalAlign=top;align=center;html=1;shape=mxgraph.aws3.ecs;fillColor=#F58534;gradientColor=none;" vertex="1" parent="Rnt6nUYaGQKZYK7r9Nj7-8">
          <mxGeometry x="50" y="22.5" width="72" height="67.5" as="geometry" />
        </mxCell>
        <mxCell id="Rnt6nUYaGQKZYK7r9Nj7-11" value="ECR" style="outlineConnect=0;dashed=0;verticalLabelPosition=bottom;verticalAlign=top;align=center;html=1;shape=mxgraph.aws3.ecr_registry;fillColor=#F58534;gradientColor=none;" vertex="1" parent="Rnt6nUYaGQKZYK7r9Nj7-8">
          <mxGeometry x="150" y="26.25" width="57" height="60" as="geometry" />
        </mxCell>
        <mxCell id="Rnt6nUYaGQKZYK7r9Nj7-12" value="Payment Gateway&lt;div&gt;Stripe, etc&lt;/div&gt;" style="rounded=0;whiteSpace=wrap;html=1;fillColor=#d5e8d4;strokeColor=#82b366;shadow=1;" vertex="1" parent="Rnt6nUYaGQKZYK7r9Nj7-8">
          <mxGeometry x="50" y="292.5" width="120" height="60" as="geometry" />
        </mxCell>
        <mxCell id="Rnt6nUYaGQKZYK7r9Nj7-13" value="Cloudwatch" style="outlineConnect=0;dashed=0;verticalLabelPosition=bottom;verticalAlign=top;align=center;html=1;shape=mxgraph.aws3.cloudwatch;fillColor=#759C3E;gradientColor=none;" vertex="1" parent="Rnt6nUYaGQKZYK7r9Nj7-8">
          <mxGeometry x="410" y="26.25" width="82.5" height="93" as="geometry" />
        </mxCell>
        <mxCell id="Rnt6nUYaGQKZYK7r9Nj7-37" value="Mailer" style="rounded=0;whiteSpace=wrap;html=1;fillColor=#e3c800;strokeColor=#B09500;fontColor=#000000;shadow=1;" vertex="1" parent="Rnt6nUYaGQKZYK7r9Nj7-8">
          <mxGeometry x="200" y="292.5" width="100" height="60" as="geometry" />
        </mxCell>
        <mxCell id="Rnt6nUYaGQKZYK7r9Nj7-38" value="Rate limiter and Cached Response" style="image;sketch=0;aspect=fixed;html=1;points=[];align=center;fontSize=12;image=img/lib/mscae/Cache_Redis_Product.svg;" vertex="1" parent="Rnt6nUYaGQKZYK7r9Nj7-8">
          <mxGeometry x="390" y="292.5" width="50" height="42" as="geometry" />
        </mxCell>
        <mxCell id="Rnt6nUYaGQKZYK7r9Nj7-50" value="VPC" style="points=[[0,0],[0.25,0],[0.5,0],[0.75,0],[1,0],[1,0.25],[1,0.5],[1,0.75],[1,1],[0.75,1],[0.5,1],[0.25,1],[0,1],[0,0.75],[0,0.5],[0,0.25]];outlineConnect=0;gradientColor=none;html=1;whiteSpace=wrap;fontSize=12;fontStyle=0;container=1;pointerEvents=0;collapsible=0;recursiveResize=0;shape=mxgraph.aws4.group;grIcon=mxgraph.aws4.group_vpc2;strokeColor=light-dark(#8C4FFF,#00CC00);fillColor=none;verticalAlign=top;align=left;spacingLeft=30;fontColor=#AAB7B8;dashed=0;" vertex="1" parent="Rnt6nUYaGQKZYK7r9Nj7-8">
          <mxGeometry width="540" height="400" as="geometry" />
        </mxCell>
        <mxCell id="Rnt6nUYaGQKZYK7r9Nj7-15" value="Horizontal Container" style="swimlane;horizontal=0;whiteSpace=wrap;html=1;" vertex="1" parent="1">
          <mxGeometry x="1460" y="187.5" width="230" height="395" as="geometry" />
        </mxCell>
        <mxCell id="Rnt6nUYaGQKZYK7r9Nj7-39" value="RDS on Postgresql Engine" style="sketch=0;points=[[0,0,0],[0.25,0,0],[0.5,0,0],[0.75,0,0],[1,0,0],[0,1,0],[0.25,1,0],[0.5,1,0],[0.75,1,0],[1,1,0],[0,0.25,0],[0,0.5,0],[0,0.75,0],[1,0.25,0],[1,0.5,0],[1,0.75,0]];outlineConnect=0;fontColor=#232F3E;fillColor=#C925D1;strokeColor=#ffffff;dashed=0;verticalLabelPosition=bottom;verticalAlign=top;align=center;html=1;fontSize=12;fontStyle=0;aspect=fixed;shape=mxgraph.aws4.resourceIcon;resIcon=mxgraph.aws4.rds;" vertex="1" parent="Rnt6nUYaGQKZYK7r9Nj7-15">
          <mxGeometry x="80" y="14.5" width="78" height="78" as="geometry" />
        </mxCell>
        <mxCell id="Rnt6nUYaGQKZYK7r9Nj7-40" value="RDS on Postgresql Engine" style="sketch=0;points=[[0,0,0],[0.25,0,0],[0.5,0,0],[0.75,0,0],[1,0,0],[0,1,0],[0.25,1,0],[0.5,1,0],[0.75,1,0],[1,1,0],[0,0.25,0],[0,0.5,0],[0,0.75,0],[1,0.25,0],[1,0.5,0],[1,0.75,0]];outlineConnect=0;fontColor=#232F3E;fillColor=#C925D1;strokeColor=#ffffff;dashed=0;verticalLabelPosition=bottom;verticalAlign=top;align=center;html=1;fontSize=12;fontStyle=0;aspect=fixed;shape=mxgraph.aws4.resourceIcon;resIcon=mxgraph.aws4.rds;" vertex="1" parent="Rnt6nUYaGQKZYK7r9Nj7-15">
          <mxGeometry x="80" y="152.5" width="78" height="78" as="geometry" />
        </mxCell>
        <mxCell id="Rnt6nUYaGQKZYK7r9Nj7-41" value="RDS on Postgresql Engine" style="sketch=0;points=[[0,0,0],[0.25,0,0],[0.5,0,0],[0.75,0,0],[1,0,0],[0,1,0],[0.25,1,0],[0.5,1,0],[0.75,1,0],[1,1,0],[0,0.25,0],[0,0.5,0],[0,0.75,0],[1,0.25,0],[1,0.5,0],[1,0.75,0]];outlineConnect=0;fontColor=#232F3E;fillColor=#C925D1;strokeColor=#ffffff;dashed=0;verticalLabelPosition=bottom;verticalAlign=top;align=center;html=1;fontSize=12;fontStyle=0;aspect=fixed;shape=mxgraph.aws4.resourceIcon;resIcon=mxgraph.aws4.rds;" vertex="1" parent="Rnt6nUYaGQKZYK7r9Nj7-15">
          <mxGeometry x="80" y="282.5" width="78" height="78" as="geometry" />
        </mxCell>
        <mxCell id="Rnt6nUYaGQKZYK7r9Nj7-24" value="" style="endArrow=classic;html=1;rounded=0;" edge="1" parent="1">
          <mxGeometry width="50" height="50" relative="1" as="geometry">
            <mxPoint x="1270" y="240" as="sourcePoint" />
            <mxPoint x="1450" y="240" as="targetPoint" />
          </mxGeometry>
        </mxCell>
        <mxCell id="Rnt6nUYaGQKZYK7r9Nj7-25" value="Requests" style="text;html=1;align=center;verticalAlign=middle;resizable=0;points=[];autosize=1;strokeColor=none;fillColor=none;" vertex="1" parent="1">
          <mxGeometry x="1330" y="210" width="70" height="30" as="geometry" />
        </mxCell>
        <mxCell id="Rnt6nUYaGQKZYK7r9Nj7-26" value="Requests" style="text;html=1;align=center;verticalAlign=middle;resizable=0;points=[];autosize=1;strokeColor=none;fillColor=none;" vertex="1" parent="1">
          <mxGeometry x="1330" y="250" width="70" height="30" as="geometry" />
        </mxCell>
        <mxCell id="Rnt6nUYaGQKZYK7r9Nj7-27" value="" style="endArrow=classic;html=1;rounded=0;" edge="1" parent="1">
          <mxGeometry width="50" height="50" relative="1" as="geometry">
            <mxPoint x="1270" y="280" as="sourcePoint" />
            <mxPoint x="1450" y="280" as="targetPoint" />
          </mxGeometry>
        </mxCell>
        <mxCell id="Rnt6nUYaGQKZYK7r9Nj7-28" value="Requests" style="text;html=1;align=center;verticalAlign=middle;resizable=0;points=[];autosize=1;strokeColor=none;fillColor=none;" vertex="1" parent="1">
          <mxGeometry x="1330" y="290" width="70" height="30" as="geometry" />
        </mxCell>
        <mxCell id="Rnt6nUYaGQKZYK7r9Nj7-29" value="" style="endArrow=classic;html=1;rounded=0;" edge="1" parent="1">
          <mxGeometry width="50" height="50" relative="1" as="geometry">
            <mxPoint x="1270" y="320" as="sourcePoint" />
            <mxPoint x="1450" y="320" as="targetPoint" />
          </mxGeometry>
        </mxCell>
        <mxCell id="Rnt6nUYaGQKZYK7r9Nj7-30" value="Response" style="text;html=1;align=center;verticalAlign=middle;resizable=0;points=[];autosize=1;strokeColor=none;fillColor=none;" vertex="1" parent="1">
          <mxGeometry x="1325" y="450" width="80" height="30" as="geometry" />
        </mxCell>
        <mxCell id="Rnt6nUYaGQKZYK7r9Nj7-31" value="" style="endArrow=classic;html=1;rounded=0;" edge="1" parent="1">
          <mxGeometry width="50" height="50" relative="1" as="geometry">
            <mxPoint x="1450" y="480" as="sourcePoint" />
            <mxPoint x="1270" y="480" as="targetPoint" />
          </mxGeometry>
        </mxCell>
        <mxCell id="Rnt6nUYaGQKZYK7r9Nj7-32" value="" style="endArrow=classic;html=1;rounded=0;" edge="1" parent="1">
          <mxGeometry width="50" height="50" relative="1" as="geometry">
            <mxPoint x="1450" y="520" as="sourcePoint" />
            <mxPoint x="1270" y="520" as="targetPoint" />
          </mxGeometry>
        </mxCell>
        <mxCell id="Rnt6nUYaGQKZYK7r9Nj7-33" value="Response" style="text;html=1;align=center;verticalAlign=middle;resizable=0;points=[];autosize=1;strokeColor=none;fillColor=none;" vertex="1" parent="1">
          <mxGeometry x="1325" y="490" width="80" height="30" as="geometry" />
        </mxCell>
        <mxCell id="Rnt6nUYaGQKZYK7r9Nj7-34" value="" style="endArrow=classic;html=1;rounded=0;" edge="1" parent="1">
          <mxGeometry width="50" height="50" relative="1" as="geometry">
            <mxPoint x="1450" y="560" as="sourcePoint" />
            <mxPoint x="1270" y="560" as="targetPoint" />
          </mxGeometry>
        </mxCell>
        <mxCell id="Rnt6nUYaGQKZYK7r9Nj7-35" value="Response" style="text;html=1;align=center;verticalAlign=middle;resizable=0;points=[];autosize=1;strokeColor=none;fillColor=none;" vertex="1" parent="1">
          <mxGeometry x="1325" y="530" width="80" height="30" as="geometry" />
        </mxCell>
        <mxCell id="Rnt6nUYaGQKZYK7r9Nj7-36" value="Payment Service" style="text;html=1;align=center;verticalAlign=middle;whiteSpace=wrap;rounded=0;" vertex="1" parent="1">
          <mxGeometry x="940" y="590" width="130" height="30" as="geometry" />
        </mxCell>
        <mxCell id="Rnt6nUYaGQKZYK7r9Nj7-42" value="" style="endArrow=classic;startArrow=classic;html=1;rounded=0;" edge="1" parent="1">
          <mxGeometry width="50" height="50" relative="1" as="geometry">
            <mxPoint x="260" y="384.5" as="sourcePoint" />
            <mxPoint x="340" y="384.5" as="targetPoint" />
          </mxGeometry>
        </mxCell>
        <mxCell id="Rnt6nUYaGQKZYK7r9Nj7-43" value="I/O" style="edgeLabel;html=1;align=center;verticalAlign=middle;resizable=0;points=[];" vertex="1" connectable="0" parent="Rnt6nUYaGQKZYK7r9Nj7-42">
          <mxGeometry x="-0.175" y="10" relative="1" as="geometry">
            <mxPoint y="1" as="offset" />
          </mxGeometry>
        </mxCell>
        <mxCell id="Rnt6nUYaGQKZYK7r9Nj7-44" value="User" style="shape=umlActor;verticalLabelPosition=bottom;verticalAlign=top;html=1;outlineConnect=0;" vertex="1" parent="1">
          <mxGeometry x="220" y="349" width="30" height="60" as="geometry" />
        </mxCell>
        <mxCell id="Rnt6nUYaGQKZYK7r9Nj7-47" value="Master-slave replication" style="text;html=1;align=center;verticalAlign=middle;whiteSpace=wrap;rounded=0;" vertex="1" parent="1">
          <mxGeometry x="1510" y="170" width="130" height="30" as="geometry" />
        </mxCell>
        <mxCell id="Rnt6nUYaGQKZYK7r9Nj7-48" value="Horizontal Container" style="swimlane;horizontal=0;whiteSpace=wrap;html=1;" vertex="1" parent="1">
          <mxGeometry x="720" y="810" width="970" height="170" as="geometry" />
        </mxCell>
        <mxCell id="Rnt6nUYaGQKZYK7r9Nj7-51" value="Rate limiter" style="image;sketch=0;aspect=fixed;html=1;points=[];align=center;fontSize=12;image=img/lib/mscae/Cache_Redis_Product.svg;" vertex="1" parent="Rnt6nUYaGQKZYK7r9Nj7-48">
          <mxGeometry x="390" y="33.75" width="50" height="42" as="geometry" />
        </mxCell>
        <mxCell id="Rnt6nUYaGQKZYK7r9Nj7-52" value="ECS" style="outlineConnect=0;dashed=0;verticalLabelPosition=bottom;verticalAlign=top;align=center;html=1;shape=mxgraph.aws3.ecs;fillColor=#F58534;gradientColor=none;" vertex="1" parent="Rnt6nUYaGQKZYK7r9Nj7-48">
          <mxGeometry x="43" y="30" width="72" height="67.5" as="geometry" />
        </mxCell>
        <mxCell id="Rnt6nUYaGQKZYK7r9Nj7-53" value="ECR" style="outlineConnect=0;dashed=0;verticalLabelPosition=bottom;verticalAlign=top;align=center;html=1;shape=mxgraph.aws3.ecr_registry;fillColor=#F58534;gradientColor=none;" vertex="1" parent="Rnt6nUYaGQKZYK7r9Nj7-48">
          <mxGeometry x="143" y="33.75" width="57" height="60" as="geometry" />
        </mxCell>
        <mxCell id="Rnt6nUYaGQKZYK7r9Nj7-54" value="Cloudwatch" style="outlineConnect=0;dashed=0;verticalLabelPosition=bottom;verticalAlign=top;align=center;html=1;shape=mxgraph.aws3.cloudwatch;fillColor=#759C3E;gradientColor=none;" vertex="1" parent="Rnt6nUYaGQKZYK7r9Nj7-48">
          <mxGeometry x="250" y="17.25" width="82.5" height="93" as="geometry" />
        </mxCell>
        <mxCell id="Rnt6nUYaGQKZYK7r9Nj7-66" value="" style="points=[];aspect=fixed;html=1;align=center;shadow=0;dashed=0;fillColor=#FF6A00;strokeColor=none;shape=mxgraph.alibaba_cloud.kafka;" vertex="1" parent="Rnt6nUYaGQKZYK7r9Nj7-48">
          <mxGeometry x="480" y="33.75" width="56.699999999999996" height="42" as="geometry" />
        </mxCell>
        <mxCell id="Rnt6nUYaGQKZYK7r9Nj7-67" value="Kafka" style="text;html=1;align=center;verticalAlign=middle;resizable=0;points=[];autosize=1;strokeColor=none;fillColor=none;" vertex="1" parent="Rnt6nUYaGQKZYK7r9Nj7-48">
          <mxGeometry x="483.35" y="82.75" width="50" height="30" as="geometry" />
        </mxCell>
        <mxCell id="Rnt6nUYaGQKZYK7r9Nj7-72" value="" style="sketch=0;outlineConnect=0;fontColor=#232F3E;gradientColor=none;fillColor=#E7157B;strokeColor=none;dashed=0;verticalLabelPosition=bottom;verticalAlign=top;align=center;html=1;fontSize=12;fontStyle=0;aspect=fixed;pointerEvents=1;shape=mxgraph.aws4.eventbridge_scheduler;" vertex="1" parent="Rnt6nUYaGQKZYK7r9Nj7-48">
          <mxGeometry x="590" y="30" width="78" height="78" as="geometry" />
        </mxCell>
        <mxCell id="Rnt6nUYaGQKZYK7r9Nj7-73" value="Scheduler" style="text;html=1;align=center;verticalAlign=middle;resizable=0;points=[];autosize=1;strokeColor=none;fillColor=none;" vertex="1" parent="Rnt6nUYaGQKZYK7r9Nj7-48">
          <mxGeometry x="600" y="110.25" width="80" height="30" as="geometry" />
        </mxCell>
        <mxCell id="Rnt6nUYaGQKZYK7r9Nj7-55" value="" style="endArrow=classic;html=1;rounded=0;entryX=0.111;entryY=1.006;entryDx=0;entryDy=0;entryPerimeter=0;" edge="1" parent="1" target="Rnt6nUYaGQKZYK7r9Nj7-50">
          <mxGeometry width="50" height="50" relative="1" as="geometry">
            <mxPoint x="780" y="810" as="sourcePoint" />
            <mxPoint x="830" y="760" as="targetPoint" />
          </mxGeometry>
        </mxCell>
        <mxCell id="Rnt6nUYaGQKZYK7r9Nj7-56" value="" style="endArrow=classic;html=1;rounded=0;entryX=0.111;entryY=1.006;entryDx=0;entryDy=0;entryPerimeter=0;" edge="1" parent="1">
          <mxGeometry width="50" height="50" relative="1" as="geometry">
            <mxPoint x="820" y="807.5" as="sourcePoint" />
            <mxPoint x="820" y="587.5" as="targetPoint" />
          </mxGeometry>
        </mxCell>
        <mxCell id="Rnt6nUYaGQKZYK7r9Nj7-57" value="" style="endArrow=classic;html=1;rounded=0;entryX=0.111;entryY=1.006;entryDx=0;entryDy=0;entryPerimeter=0;" edge="1" parent="1">
          <mxGeometry width="50" height="50" relative="1" as="geometry">
            <mxPoint x="860" y="810" as="sourcePoint" />
            <mxPoint x="860" y="590" as="targetPoint" />
          </mxGeometry>
        </mxCell>
        <mxCell id="Rnt6nUYaGQKZYK7r9Nj7-61" value="" style="endArrow=classic;html=1;rounded=0;entryX=0.111;entryY=1.006;entryDx=0;entryDy=0;entryPerimeter=0;" edge="1" parent="1">
          <mxGeometry width="50" height="50" relative="1" as="geometry">
            <mxPoint x="1210" y="590" as="sourcePoint" />
            <mxPoint x="1210" y="810" as="targetPoint" />
          </mxGeometry>
        </mxCell>
        <mxCell id="Rnt6nUYaGQKZYK7r9Nj7-62" value="" style="endArrow=classic;html=1;rounded=0;entryX=0.111;entryY=1.006;entryDx=0;entryDy=0;entryPerimeter=0;" edge="1" parent="1">
          <mxGeometry width="50" height="50" relative="1" as="geometry">
            <mxPoint x="1170" y="587.5" as="sourcePoint" />
            <mxPoint x="1170" y="807.5" as="targetPoint" />
          </mxGeometry>
        </mxCell>
        <mxCell id="Rnt6nUYaGQKZYK7r9Nj7-63" value="" style="endArrow=classic;html=1;rounded=0;entryX=0.111;entryY=1.006;entryDx=0;entryDy=0;entryPerimeter=0;" edge="1" parent="1">
          <mxGeometry width="50" height="50" relative="1" as="geometry">
            <mxPoint x="1130" y="590" as="sourcePoint" />
            <mxPoint x="1130" y="810" as="targetPoint" />
          </mxGeometry>
        </mxCell>
        <mxCell id="Rnt6nUYaGQKZYK7r9Nj7-65" value="Subscription Engine" style="text;html=1;align=center;verticalAlign=middle;resizable=0;points=[];autosize=1;strokeColor=none;fillColor=none;" vertex="1" parent="1">
          <mxGeometry x="1140" y="980" width="130" height="30" as="geometry" />
        </mxCell>
        <mxCell id="Rnt6nUYaGQKZYK7r9Nj7-68" value="" style="endArrow=classic;html=1;rounded=0;entryX=0.111;entryY=1.006;entryDx=0;entryDy=0;entryPerimeter=0;" edge="1" parent="1">
          <mxGeometry width="50" height="50" relative="1" as="geometry">
            <mxPoint x="1508.46" y="810" as="sourcePoint" />
            <mxPoint x="1508.46" y="590" as="targetPoint" />
          </mxGeometry>
        </mxCell>
        <mxCell id="Rnt6nUYaGQKZYK7r9Nj7-69" value="" style="endArrow=classic;html=1;rounded=0;entryX=0.111;entryY=1.006;entryDx=0;entryDy=0;entryPerimeter=0;" edge="1" parent="1">
          <mxGeometry width="50" height="50" relative="1" as="geometry">
            <mxPoint x="1468.46" y="812.5" as="sourcePoint" />
            <mxPoint x="1468.46" y="592.5" as="targetPoint" />
          </mxGeometry>
        </mxCell>
        <mxCell id="Rnt6nUYaGQKZYK7r9Nj7-70" value="" style="endArrow=classic;html=1;rounded=0;entryX=0.111;entryY=1.006;entryDx=0;entryDy=0;entryPerimeter=0;" edge="1" parent="1">
          <mxGeometry width="50" height="50" relative="1" as="geometry">
            <mxPoint x="1669" y="585" as="sourcePoint" />
            <mxPoint x="1669" y="805" as="targetPoint" />
          </mxGeometry>
        </mxCell>
        <mxCell id="Rnt6nUYaGQKZYK7r9Nj7-71" value="" style="endArrow=classic;html=1;rounded=0;entryX=0.111;entryY=1.006;entryDx=0;entryDy=0;entryPerimeter=0;" edge="1" parent="1">
          <mxGeometry width="50" height="50" relative="1" as="geometry">
            <mxPoint x="1629" y="582.5" as="sourcePoint" />
            <mxPoint x="1629" y="802.5" as="targetPoint" />
          </mxGeometry>
        </mxCell>
      </root>
    </mxGraphModel>
  </diagram>
</mxfile>
